G04 #@! TF.GenerationSoftware,KiCad,Pcbnew,(5.1.5-0-10_14)*
G04 #@! TF.CreationDate,2020-02-16T18:48:00-08:00*
G04 #@! TF.ProjectId,SpectrumAnayzerMini32,53706563-7472-4756-9d41-6e61797a6572,rev?*
G04 #@! TF.SameCoordinates,Original*
G04 #@! TF.FileFunction,Soldermask,Bot*
G04 #@! TF.FilePolarity,Negative*
%FSLAX46Y46*%
G04 Gerber Fmt 4.6, Leading zero omitted, Abs format (unit mm)*
G04 Created by KiCad (PCBNEW (5.1.5-0-10_14)) date 2020-02-16 18:48:00*
%MOMM*%
%LPD*%
G04 APERTURE LIST*
%ADD10C,0.100000*%
G04 APERTURE END LIST*
D10*
G36*
X245489487Y-149878996D02*
G01*
X245726253Y-149977068D01*
X245726255Y-149977069D01*
X245939339Y-150119447D01*
X246120553Y-150300661D01*
X246262932Y-150513747D01*
X246361004Y-150750513D01*
X246411000Y-151001861D01*
X246411000Y-151258139D01*
X246361004Y-151509487D01*
X246262932Y-151746253D01*
X246262931Y-151746255D01*
X246120553Y-151959339D01*
X245939339Y-152140553D01*
X245726255Y-152282931D01*
X245726254Y-152282932D01*
X245726253Y-152282932D01*
X245489487Y-152381004D01*
X245238139Y-152431000D01*
X244981861Y-152431000D01*
X244730513Y-152381004D01*
X244493747Y-152282932D01*
X244493746Y-152282932D01*
X244493745Y-152282931D01*
X244280661Y-152140553D01*
X244099447Y-151959339D01*
X243957069Y-151746255D01*
X243957068Y-151746253D01*
X243858996Y-151509487D01*
X243809000Y-151258139D01*
X243809000Y-151001861D01*
X243858996Y-150750513D01*
X243957068Y-150513747D01*
X244099447Y-150300661D01*
X244280661Y-150119447D01*
X244493745Y-149977069D01*
X244493747Y-149977068D01*
X244730513Y-149878996D01*
X244981861Y-149829000D01*
X245238139Y-149829000D01*
X245489487Y-149878996D01*
G37*
G36*
X24509487Y-149878996D02*
G01*
X24746253Y-149977068D01*
X24746255Y-149977069D01*
X24959339Y-150119447D01*
X25140553Y-150300661D01*
X25282932Y-150513747D01*
X25381004Y-150750513D01*
X25431000Y-151001861D01*
X25431000Y-151258139D01*
X25381004Y-151509487D01*
X25282932Y-151746253D01*
X25282931Y-151746255D01*
X25140553Y-151959339D01*
X24959339Y-152140553D01*
X24746255Y-152282931D01*
X24746254Y-152282932D01*
X24746253Y-152282932D01*
X24509487Y-152381004D01*
X24258139Y-152431000D01*
X24001861Y-152431000D01*
X23750513Y-152381004D01*
X23513747Y-152282932D01*
X23513746Y-152282932D01*
X23513745Y-152282931D01*
X23300661Y-152140553D01*
X23119447Y-151959339D01*
X22977069Y-151746255D01*
X22977068Y-151746253D01*
X22878996Y-151509487D01*
X22829000Y-151258139D01*
X22829000Y-151001861D01*
X22878996Y-150750513D01*
X22977068Y-150513747D01*
X23119447Y-150300661D01*
X23300661Y-150119447D01*
X23513745Y-149977069D01*
X23513747Y-149977068D01*
X23750513Y-149878996D01*
X24001861Y-149829000D01*
X24258139Y-149829000D01*
X24509487Y-149878996D01*
G37*
G36*
X242048512Y-140708927D02*
G01*
X242197812Y-140738624D01*
X242361784Y-140806544D01*
X242509354Y-140905147D01*
X242634853Y-141030646D01*
X242733456Y-141178216D01*
X242801376Y-141342188D01*
X242836000Y-141516259D01*
X242836000Y-141693741D01*
X242801376Y-141867812D01*
X242733456Y-142031784D01*
X242634853Y-142179354D01*
X242509354Y-142304853D01*
X242361784Y-142403456D01*
X242197812Y-142471376D01*
X242048512Y-142501073D01*
X242023742Y-142506000D01*
X241846258Y-142506000D01*
X241821488Y-142501073D01*
X241672188Y-142471376D01*
X241508216Y-142403456D01*
X241360646Y-142304853D01*
X241235147Y-142179354D01*
X241136544Y-142031784D01*
X241068624Y-141867812D01*
X241034000Y-141693741D01*
X241034000Y-141516259D01*
X241068624Y-141342188D01*
X241136544Y-141178216D01*
X241235147Y-141030646D01*
X241360646Y-140905147D01*
X241508216Y-140806544D01*
X241672188Y-140738624D01*
X241821488Y-140708927D01*
X241846258Y-140704000D01*
X242023742Y-140704000D01*
X242048512Y-140708927D01*
G37*
G36*
X242048512Y-138168927D02*
G01*
X242197812Y-138198624D01*
X242361784Y-138266544D01*
X242509354Y-138365147D01*
X242634853Y-138490646D01*
X242733456Y-138638216D01*
X242801376Y-138802188D01*
X242836000Y-138976259D01*
X242836000Y-139153741D01*
X242801376Y-139327812D01*
X242733456Y-139491784D01*
X242634853Y-139639354D01*
X242509354Y-139764853D01*
X242361784Y-139863456D01*
X242197812Y-139931376D01*
X242048512Y-139961073D01*
X242023742Y-139966000D01*
X241846258Y-139966000D01*
X241821488Y-139961073D01*
X241672188Y-139931376D01*
X241508216Y-139863456D01*
X241360646Y-139764853D01*
X241235147Y-139639354D01*
X241136544Y-139491784D01*
X241068624Y-139327812D01*
X241034000Y-139153741D01*
X241034000Y-138976259D01*
X241068624Y-138802188D01*
X241136544Y-138638216D01*
X241235147Y-138490646D01*
X241360646Y-138365147D01*
X241508216Y-138266544D01*
X241672188Y-138198624D01*
X241821488Y-138168927D01*
X241846258Y-138164000D01*
X242023742Y-138164000D01*
X242048512Y-138168927D01*
G37*
G36*
X242048512Y-135628927D02*
G01*
X242197812Y-135658624D01*
X242361784Y-135726544D01*
X242509354Y-135825147D01*
X242634853Y-135950646D01*
X242733456Y-136098216D01*
X242801376Y-136262188D01*
X242836000Y-136436259D01*
X242836000Y-136613741D01*
X242801376Y-136787812D01*
X242733456Y-136951784D01*
X242634853Y-137099354D01*
X242509354Y-137224853D01*
X242361784Y-137323456D01*
X242197812Y-137391376D01*
X242048512Y-137421073D01*
X242023742Y-137426000D01*
X241846258Y-137426000D01*
X241821488Y-137421073D01*
X241672188Y-137391376D01*
X241508216Y-137323456D01*
X241360646Y-137224853D01*
X241235147Y-137099354D01*
X241136544Y-136951784D01*
X241068624Y-136787812D01*
X241034000Y-136613741D01*
X241034000Y-136436259D01*
X241068624Y-136262188D01*
X241136544Y-136098216D01*
X241235147Y-135950646D01*
X241360646Y-135825147D01*
X241508216Y-135726544D01*
X241672188Y-135658624D01*
X241821488Y-135628927D01*
X241846258Y-135624000D01*
X242023742Y-135624000D01*
X242048512Y-135628927D01*
G37*
G36*
X242836000Y-134886000D02*
G01*
X241034000Y-134886000D01*
X241034000Y-133084000D01*
X242836000Y-133084000D01*
X242836000Y-134886000D01*
G37*
G36*
X26886000Y-76416000D02*
G01*
X25184000Y-76416000D01*
X25184000Y-74714000D01*
X26886000Y-74714000D01*
X26886000Y-76416000D01*
G37*
G36*
X26283228Y-72246703D02*
G01*
X26438100Y-72310853D01*
X26577481Y-72403985D01*
X26696015Y-72522519D01*
X26789147Y-72661900D01*
X26853297Y-72816772D01*
X26886000Y-72981184D01*
X26886000Y-73148816D01*
X26853297Y-73313228D01*
X26789147Y-73468100D01*
X26696015Y-73607481D01*
X26577481Y-73726015D01*
X26438100Y-73819147D01*
X26283228Y-73883297D01*
X26118816Y-73916000D01*
X25951184Y-73916000D01*
X25786772Y-73883297D01*
X25631900Y-73819147D01*
X25492519Y-73726015D01*
X25373985Y-73607481D01*
X25280853Y-73468100D01*
X25216703Y-73313228D01*
X25184000Y-73148816D01*
X25184000Y-72981184D01*
X25216703Y-72816772D01*
X25280853Y-72661900D01*
X25373985Y-72522519D01*
X25492519Y-72403985D01*
X25631900Y-72310853D01*
X25786772Y-72246703D01*
X25951184Y-72214000D01*
X26118816Y-72214000D01*
X26283228Y-72246703D01*
G37*
G36*
X27186000Y-61476000D02*
G01*
X26220993Y-61476000D01*
X26196607Y-61478402D01*
X26173158Y-61485515D01*
X26151547Y-61497066D01*
X26132605Y-61512611D01*
X26117060Y-61531553D01*
X26105509Y-61553164D01*
X26098396Y-61576613D01*
X26095994Y-61600999D01*
X26098396Y-61625385D01*
X26105509Y-61648834D01*
X26117060Y-61670445D01*
X26132605Y-61689387D01*
X26151547Y-61704932D01*
X26173158Y-61716483D01*
X26196608Y-61723596D01*
X26370734Y-61758232D01*
X26580203Y-61844997D01*
X26768720Y-61970960D01*
X26929040Y-62131280D01*
X27055003Y-62319797D01*
X27141768Y-62529266D01*
X27186000Y-62751636D01*
X27186000Y-62978364D01*
X27141768Y-63200734D01*
X27055003Y-63410203D01*
X26929040Y-63598720D01*
X26768720Y-63759040D01*
X26580203Y-63885003D01*
X26370734Y-63971768D01*
X26243161Y-63997144D01*
X26166448Y-64012403D01*
X26142999Y-64019516D01*
X26121388Y-64031067D01*
X26102446Y-64046612D01*
X26086901Y-64065554D01*
X26075350Y-64087165D01*
X26068237Y-64110614D01*
X26065835Y-64135000D01*
X26068237Y-64159386D01*
X26075350Y-64182835D01*
X26086901Y-64204446D01*
X26102446Y-64223388D01*
X26121388Y-64238933D01*
X26142999Y-64250484D01*
X26166448Y-64257597D01*
X26243161Y-64272856D01*
X26370734Y-64298232D01*
X26580203Y-64384997D01*
X26768720Y-64510960D01*
X26929040Y-64671280D01*
X27055003Y-64859797D01*
X27141768Y-65069266D01*
X27186000Y-65291636D01*
X27186000Y-65518364D01*
X27141768Y-65740734D01*
X27055003Y-65950203D01*
X26929040Y-66138720D01*
X26768720Y-66299040D01*
X26580203Y-66425003D01*
X26370734Y-66511768D01*
X26243161Y-66537144D01*
X26166448Y-66552403D01*
X26142999Y-66559516D01*
X26121388Y-66571067D01*
X26102446Y-66586612D01*
X26086901Y-66605554D01*
X26075350Y-66627165D01*
X26068237Y-66650614D01*
X26065835Y-66675000D01*
X26068237Y-66699386D01*
X26075350Y-66722835D01*
X26086901Y-66744446D01*
X26102446Y-66763388D01*
X26121388Y-66778933D01*
X26142999Y-66790484D01*
X26166448Y-66797597D01*
X26243161Y-66812856D01*
X26370734Y-66838232D01*
X26580203Y-66924997D01*
X26768720Y-67050960D01*
X26929040Y-67211280D01*
X27055003Y-67399797D01*
X27141768Y-67609266D01*
X27186000Y-67831636D01*
X27186000Y-68058364D01*
X27141768Y-68280734D01*
X27055003Y-68490203D01*
X26929040Y-68678720D01*
X26768720Y-68839040D01*
X26580203Y-68965003D01*
X26370734Y-69051768D01*
X26259549Y-69073884D01*
X26148365Y-69096000D01*
X25921635Y-69096000D01*
X25810451Y-69073884D01*
X25699266Y-69051768D01*
X25489797Y-68965003D01*
X25301280Y-68839040D01*
X25140960Y-68678720D01*
X25014997Y-68490203D01*
X24928232Y-68280734D01*
X24884000Y-68058364D01*
X24884000Y-67831636D01*
X24928232Y-67609266D01*
X25014997Y-67399797D01*
X25140960Y-67211280D01*
X25301280Y-67050960D01*
X25489797Y-66924997D01*
X25699266Y-66838232D01*
X25826839Y-66812856D01*
X25903552Y-66797597D01*
X25927001Y-66790484D01*
X25948612Y-66778933D01*
X25967554Y-66763388D01*
X25983099Y-66744446D01*
X25994650Y-66722835D01*
X26001763Y-66699386D01*
X26004165Y-66675000D01*
X26001763Y-66650614D01*
X25994650Y-66627165D01*
X25983099Y-66605554D01*
X25967554Y-66586612D01*
X25948612Y-66571067D01*
X25927001Y-66559516D01*
X25903552Y-66552403D01*
X25826839Y-66537144D01*
X25699266Y-66511768D01*
X25489797Y-66425003D01*
X25301280Y-66299040D01*
X25140960Y-66138720D01*
X25014997Y-65950203D01*
X24928232Y-65740734D01*
X24884000Y-65518364D01*
X24884000Y-65291636D01*
X24928232Y-65069266D01*
X25014997Y-64859797D01*
X25140960Y-64671280D01*
X25301280Y-64510960D01*
X25489797Y-64384997D01*
X25699266Y-64298232D01*
X25826839Y-64272856D01*
X25903552Y-64257597D01*
X25927001Y-64250484D01*
X25948612Y-64238933D01*
X25967554Y-64223388D01*
X25983099Y-64204446D01*
X25994650Y-64182835D01*
X26001763Y-64159386D01*
X26004165Y-64135000D01*
X26001763Y-64110614D01*
X25994650Y-64087165D01*
X25983099Y-64065554D01*
X25967554Y-64046612D01*
X25948612Y-64031067D01*
X25927001Y-64019516D01*
X25903552Y-64012403D01*
X25826839Y-63997144D01*
X25699266Y-63971768D01*
X25489797Y-63885003D01*
X25301280Y-63759040D01*
X25140960Y-63598720D01*
X25014997Y-63410203D01*
X24928232Y-63200734D01*
X24884000Y-62978364D01*
X24884000Y-62751636D01*
X24928232Y-62529266D01*
X25014997Y-62319797D01*
X25140960Y-62131280D01*
X25301280Y-61970960D01*
X25489797Y-61844997D01*
X25699266Y-61758232D01*
X25873392Y-61723596D01*
X25896842Y-61716483D01*
X25918453Y-61704932D01*
X25937395Y-61689387D01*
X25952940Y-61670445D01*
X25964491Y-61648834D01*
X25971604Y-61625385D01*
X25974006Y-61600999D01*
X25971604Y-61576613D01*
X25964491Y-61553164D01*
X25952940Y-61531553D01*
X25937395Y-61512611D01*
X25918453Y-61497066D01*
X25896842Y-61485515D01*
X25873393Y-61478402D01*
X25849007Y-61476000D01*
X24884000Y-61476000D01*
X24884000Y-59174000D01*
X27186000Y-59174000D01*
X27186000Y-61476000D01*
G37*
G36*
X28206000Y-47256000D02*
G01*
X26404000Y-47256000D01*
X26404000Y-45454000D01*
X28206000Y-45454000D01*
X28206000Y-47256000D01*
G37*
G36*
X27418512Y-42918927D02*
G01*
X27567812Y-42948624D01*
X27731784Y-43016544D01*
X27879354Y-43115147D01*
X28004853Y-43240646D01*
X28103456Y-43388216D01*
X28171376Y-43552188D01*
X28206000Y-43726259D01*
X28206000Y-43903741D01*
X28171376Y-44077812D01*
X28103456Y-44241784D01*
X28004853Y-44389354D01*
X27879354Y-44514853D01*
X27731784Y-44613456D01*
X27567812Y-44681376D01*
X27418512Y-44711073D01*
X27393742Y-44716000D01*
X27216258Y-44716000D01*
X27191488Y-44711073D01*
X27042188Y-44681376D01*
X26878216Y-44613456D01*
X26730646Y-44514853D01*
X26605147Y-44389354D01*
X26506544Y-44241784D01*
X26438624Y-44077812D01*
X26404000Y-43903741D01*
X26404000Y-43726259D01*
X26438624Y-43552188D01*
X26506544Y-43388216D01*
X26605147Y-43240646D01*
X26730646Y-43115147D01*
X26878216Y-43016544D01*
X27042188Y-42948624D01*
X27191488Y-42918927D01*
X27216258Y-42914000D01*
X27393742Y-42914000D01*
X27418512Y-42918927D01*
G37*
G36*
X27418512Y-40378927D02*
G01*
X27567812Y-40408624D01*
X27731784Y-40476544D01*
X27879354Y-40575147D01*
X28004853Y-40700646D01*
X28103456Y-40848216D01*
X28171376Y-41012188D01*
X28206000Y-41186259D01*
X28206000Y-41363741D01*
X28171376Y-41537812D01*
X28103456Y-41701784D01*
X28004853Y-41849354D01*
X27879354Y-41974853D01*
X27731784Y-42073456D01*
X27567812Y-42141376D01*
X27418512Y-42171073D01*
X27393742Y-42176000D01*
X27216258Y-42176000D01*
X27191488Y-42171073D01*
X27042188Y-42141376D01*
X26878216Y-42073456D01*
X26730646Y-41974853D01*
X26605147Y-41849354D01*
X26506544Y-41701784D01*
X26438624Y-41537812D01*
X26404000Y-41363741D01*
X26404000Y-41186259D01*
X26438624Y-41012188D01*
X26506544Y-40848216D01*
X26605147Y-40700646D01*
X26730646Y-40575147D01*
X26878216Y-40476544D01*
X27042188Y-40408624D01*
X27191488Y-40378927D01*
X27216258Y-40374000D01*
X27393742Y-40374000D01*
X27418512Y-40378927D01*
G37*
G36*
X27418512Y-37838927D02*
G01*
X27567812Y-37868624D01*
X27731784Y-37936544D01*
X27879354Y-38035147D01*
X28004853Y-38160646D01*
X28103456Y-38308216D01*
X28171376Y-38472188D01*
X28206000Y-38646259D01*
X28206000Y-38823741D01*
X28171376Y-38997812D01*
X28103456Y-39161784D01*
X28004853Y-39309354D01*
X27879354Y-39434853D01*
X27731784Y-39533456D01*
X27567812Y-39601376D01*
X27418512Y-39631073D01*
X27393742Y-39636000D01*
X27216258Y-39636000D01*
X27191488Y-39631073D01*
X27042188Y-39601376D01*
X26878216Y-39533456D01*
X26730646Y-39434853D01*
X26605147Y-39309354D01*
X26506544Y-39161784D01*
X26438624Y-38997812D01*
X26404000Y-38823741D01*
X26404000Y-38646259D01*
X26438624Y-38472188D01*
X26506544Y-38308216D01*
X26605147Y-38160646D01*
X26730646Y-38035147D01*
X26878216Y-37936544D01*
X27042188Y-37868624D01*
X27191488Y-37838927D01*
X27216258Y-37834000D01*
X27393742Y-37834000D01*
X27418512Y-37838927D01*
G37*
G36*
X245489487Y-29228996D02*
G01*
X245726253Y-29327068D01*
X245726255Y-29327069D01*
X245939339Y-29469447D01*
X246120553Y-29650661D01*
X246262932Y-29863747D01*
X246361004Y-30100513D01*
X246411000Y-30351861D01*
X246411000Y-30608139D01*
X246361004Y-30859487D01*
X246262932Y-31096253D01*
X246262931Y-31096255D01*
X246120553Y-31309339D01*
X245939339Y-31490553D01*
X245726255Y-31632931D01*
X245726254Y-31632932D01*
X245726253Y-31632932D01*
X245489487Y-31731004D01*
X245238139Y-31781000D01*
X244981861Y-31781000D01*
X244730513Y-31731004D01*
X244493747Y-31632932D01*
X244493746Y-31632932D01*
X244493745Y-31632931D01*
X244280661Y-31490553D01*
X244099447Y-31309339D01*
X243957069Y-31096255D01*
X243957068Y-31096253D01*
X243858996Y-30859487D01*
X243809000Y-30608139D01*
X243809000Y-30351861D01*
X243858996Y-30100513D01*
X243957068Y-29863747D01*
X244099447Y-29650661D01*
X244280661Y-29469447D01*
X244493745Y-29327069D01*
X244493747Y-29327068D01*
X244730513Y-29228996D01*
X244981861Y-29179000D01*
X245238139Y-29179000D01*
X245489487Y-29228996D01*
G37*
G36*
X24509487Y-29228996D02*
G01*
X24746253Y-29327068D01*
X24746255Y-29327069D01*
X24959339Y-29469447D01*
X25140553Y-29650661D01*
X25282932Y-29863747D01*
X25381004Y-30100513D01*
X25431000Y-30351861D01*
X25431000Y-30608139D01*
X25381004Y-30859487D01*
X25282932Y-31096253D01*
X25282931Y-31096255D01*
X25140553Y-31309339D01*
X24959339Y-31490553D01*
X24746255Y-31632931D01*
X24746254Y-31632932D01*
X24746253Y-31632932D01*
X24509487Y-31731004D01*
X24258139Y-31781000D01*
X24001861Y-31781000D01*
X23750513Y-31731004D01*
X23513747Y-31632932D01*
X23513746Y-31632932D01*
X23513745Y-31632931D01*
X23300661Y-31490553D01*
X23119447Y-31309339D01*
X22977069Y-31096255D01*
X22977068Y-31096253D01*
X22878996Y-30859487D01*
X22829000Y-30608139D01*
X22829000Y-30351861D01*
X22878996Y-30100513D01*
X22977068Y-29863747D01*
X23119447Y-29650661D01*
X23300661Y-29469447D01*
X23513745Y-29327069D01*
X23513747Y-29327068D01*
X23750513Y-29228996D01*
X24001861Y-29179000D01*
X24258139Y-29179000D01*
X24509487Y-29228996D01*
G37*
M02*
