G04 #@! TF.GenerationSoftware,KiCad,Pcbnew,(5.1.5-0-10_14)*
G04 #@! TF.CreationDate,2020-02-16T18:48:00-08:00*
G04 #@! TF.ProjectId,SpectrumAnayzerMini32,53706563-7472-4756-9d41-6e61797a6572,rev?*
G04 #@! TF.SameCoordinates,Original*
G04 #@! TF.FileFunction,Paste,Top*
G04 #@! TF.FilePolarity,Positive*
%FSLAX46Y46*%
G04 Gerber Fmt 4.6, Leading zero omitted, Abs format (unit mm)*
G04 Created by KiCad (PCBNEW (5.1.5-0-10_14)) date 2020-02-16 18:48:00*
%MOMM*%
%LPD*%
G04 APERTURE LIST*
%ADD10R,0.850000X1.600000*%
G04 APERTURE END LIST*
D10*
X235980000Y-148816000D03*
X237730000Y-148816000D03*
X235980000Y-145316000D03*
X237730000Y-145316000D03*
X235980000Y-141196000D03*
X237730000Y-141196000D03*
X235980000Y-137696000D03*
X237730000Y-137696000D03*
X235980000Y-133576000D03*
X237730000Y-133576000D03*
X235980000Y-130076000D03*
X237730000Y-130076000D03*
X235980000Y-125956000D03*
X237730000Y-125956000D03*
X235980000Y-122456000D03*
X237730000Y-122456000D03*
X235980000Y-118336000D03*
X237730000Y-118336000D03*
X235980000Y-114836000D03*
X237730000Y-114836000D03*
X235980000Y-110716000D03*
X237730000Y-110716000D03*
X235980000Y-107216000D03*
X237730000Y-107216000D03*
X235980000Y-103096000D03*
X237730000Y-103096000D03*
X235980000Y-99596000D03*
X237730000Y-99596000D03*
X235980000Y-95476000D03*
X237730000Y-95476000D03*
X235980000Y-91976000D03*
X237730000Y-91976000D03*
X235980000Y-87856000D03*
X237730000Y-87856000D03*
X235980000Y-84356000D03*
X237730000Y-84356000D03*
X235980000Y-80236000D03*
X237730000Y-80236000D03*
X235980000Y-76736000D03*
X237730000Y-76736000D03*
X235980000Y-72616000D03*
X237730000Y-72616000D03*
X235980000Y-69116000D03*
X237730000Y-69116000D03*
X235980000Y-64996000D03*
X237730000Y-64996000D03*
X235980000Y-61496000D03*
X237730000Y-61496000D03*
X235980000Y-57376000D03*
X237730000Y-57376000D03*
X235980000Y-53876000D03*
X237730000Y-53876000D03*
X235980000Y-49756000D03*
X237730000Y-49756000D03*
X235980000Y-46256000D03*
X237730000Y-46256000D03*
X235980000Y-42136000D03*
X237730000Y-42136000D03*
X235980000Y-38636000D03*
X237730000Y-38636000D03*
X235980000Y-34516000D03*
X237730000Y-34516000D03*
X235980000Y-31016000D03*
X237730000Y-31016000D03*
X229630000Y-148816000D03*
X231380000Y-148816000D03*
X229630000Y-145316000D03*
X231380000Y-145316000D03*
X229630000Y-141196000D03*
X231380000Y-141196000D03*
X229630000Y-137696000D03*
X231380000Y-137696000D03*
X229630000Y-133576000D03*
X231380000Y-133576000D03*
X229630000Y-130076000D03*
X231380000Y-130076000D03*
X229630000Y-125956000D03*
X231380000Y-125956000D03*
X229630000Y-122456000D03*
X231380000Y-122456000D03*
X229630000Y-118336000D03*
X231380000Y-118336000D03*
X229630000Y-114836000D03*
X231380000Y-114836000D03*
X229630000Y-110716000D03*
X231380000Y-110716000D03*
X229630000Y-107216000D03*
X231380000Y-107216000D03*
X229630000Y-103096000D03*
X231380000Y-103096000D03*
X229630000Y-99596000D03*
X231380000Y-99596000D03*
X229630000Y-95476000D03*
X231380000Y-95476000D03*
X229630000Y-91976000D03*
X231380000Y-91976000D03*
X229630000Y-87856000D03*
X231380000Y-87856000D03*
X229630000Y-84356000D03*
X231380000Y-84356000D03*
X229630000Y-80236000D03*
X231380000Y-80236000D03*
X229630000Y-76736000D03*
X231380000Y-76736000D03*
X229630000Y-72616000D03*
X231380000Y-72616000D03*
X229630000Y-69116000D03*
X231380000Y-69116000D03*
X229630000Y-64996000D03*
X231380000Y-64996000D03*
X229630000Y-61496000D03*
X231380000Y-61496000D03*
X229630000Y-57376000D03*
X231380000Y-57376000D03*
X229630000Y-53876000D03*
X231380000Y-53876000D03*
X229630000Y-49756000D03*
X231380000Y-49756000D03*
X229630000Y-46256000D03*
X231380000Y-46256000D03*
X229630000Y-42136000D03*
X231380000Y-42136000D03*
X229630000Y-38636000D03*
X231380000Y-38636000D03*
X229630000Y-34516000D03*
X231380000Y-34516000D03*
X229630000Y-31016000D03*
X231380000Y-31016000D03*
X223280000Y-148816000D03*
X225030000Y-148816000D03*
X223280000Y-145316000D03*
X225030000Y-145316000D03*
X223280000Y-141196000D03*
X225030000Y-141196000D03*
X223280000Y-137696000D03*
X225030000Y-137696000D03*
X223280000Y-133576000D03*
X225030000Y-133576000D03*
X223280000Y-130076000D03*
X225030000Y-130076000D03*
X223280000Y-125956000D03*
X225030000Y-125956000D03*
X223280000Y-122456000D03*
X225030000Y-122456000D03*
X223280000Y-118336000D03*
X225030000Y-118336000D03*
X223280000Y-114836000D03*
X225030000Y-114836000D03*
X223280000Y-110716000D03*
X225030000Y-110716000D03*
X223280000Y-107216000D03*
X225030000Y-107216000D03*
X223280000Y-103096000D03*
X225030000Y-103096000D03*
X223280000Y-99596000D03*
X225030000Y-99596000D03*
X223280000Y-95476000D03*
X225030000Y-95476000D03*
X223280000Y-91976000D03*
X225030000Y-91976000D03*
X223280000Y-87856000D03*
X225030000Y-87856000D03*
X223280000Y-84356000D03*
X225030000Y-84356000D03*
X223280000Y-80236000D03*
X225030000Y-80236000D03*
X223280000Y-76736000D03*
X225030000Y-76736000D03*
X223280000Y-72616000D03*
X225030000Y-72616000D03*
X223280000Y-69116000D03*
X225030000Y-69116000D03*
X223280000Y-64996000D03*
X225030000Y-64996000D03*
X223280000Y-61496000D03*
X225030000Y-61496000D03*
X223280000Y-57376000D03*
X225030000Y-57376000D03*
X223280000Y-53876000D03*
X225030000Y-53876000D03*
X223280000Y-49756000D03*
X225030000Y-49756000D03*
X223280000Y-46256000D03*
X225030000Y-46256000D03*
X223280000Y-42136000D03*
X225030000Y-42136000D03*
X223280000Y-38636000D03*
X225030000Y-38636000D03*
X223280000Y-34516000D03*
X225030000Y-34516000D03*
X223280000Y-31016000D03*
X225030000Y-31016000D03*
X216930000Y-148816000D03*
X218680000Y-148816000D03*
X216930000Y-145316000D03*
X218680000Y-145316000D03*
X216930000Y-141196000D03*
X218680000Y-141196000D03*
X216930000Y-137696000D03*
X218680000Y-137696000D03*
X216930000Y-133576000D03*
X218680000Y-133576000D03*
X216930000Y-130076000D03*
X218680000Y-130076000D03*
X216930000Y-125956000D03*
X218680000Y-125956000D03*
X216930000Y-122456000D03*
X218680000Y-122456000D03*
X216930000Y-118336000D03*
X218680000Y-118336000D03*
X216930000Y-114836000D03*
X218680000Y-114836000D03*
X216930000Y-110716000D03*
X218680000Y-110716000D03*
X216930000Y-107216000D03*
X218680000Y-107216000D03*
X216930000Y-103096000D03*
X218680000Y-103096000D03*
X216930000Y-99596000D03*
X218680000Y-99596000D03*
X216930000Y-95476000D03*
X218680000Y-95476000D03*
X216930000Y-91976000D03*
X218680000Y-91976000D03*
X216930000Y-87856000D03*
X218680000Y-87856000D03*
X216930000Y-84356000D03*
X218680000Y-84356000D03*
X216930000Y-80236000D03*
X218680000Y-80236000D03*
X216930000Y-76736000D03*
X218680000Y-76736000D03*
X216930000Y-72616000D03*
X218680000Y-72616000D03*
X216930000Y-69116000D03*
X218680000Y-69116000D03*
X216930000Y-64996000D03*
X218680000Y-64996000D03*
X216930000Y-61496000D03*
X218680000Y-61496000D03*
X216930000Y-57376000D03*
X218680000Y-57376000D03*
X216930000Y-53876000D03*
X218680000Y-53876000D03*
X216930000Y-49756000D03*
X218680000Y-49756000D03*
X216930000Y-46256000D03*
X218680000Y-46256000D03*
X216930000Y-42136000D03*
X218680000Y-42136000D03*
X216930000Y-38636000D03*
X218680000Y-38636000D03*
X216930000Y-34516000D03*
X218680000Y-34516000D03*
X216930000Y-31016000D03*
X218680000Y-31016000D03*
X210580000Y-148816000D03*
X212330000Y-148816000D03*
X210580000Y-145316000D03*
X212330000Y-145316000D03*
X210580000Y-141196000D03*
X212330000Y-141196000D03*
X210580000Y-137696000D03*
X212330000Y-137696000D03*
X210580000Y-133576000D03*
X212330000Y-133576000D03*
X210580000Y-130076000D03*
X212330000Y-130076000D03*
X210580000Y-125956000D03*
X212330000Y-125956000D03*
X210580000Y-122456000D03*
X212330000Y-122456000D03*
X210520000Y-118336000D03*
X212270000Y-118336000D03*
X210520000Y-114836000D03*
X212270000Y-114836000D03*
X210580000Y-110716000D03*
X212330000Y-110716000D03*
X210580000Y-107216000D03*
X212330000Y-107216000D03*
X210580000Y-103096000D03*
X212330000Y-103096000D03*
X210580000Y-99596000D03*
X212330000Y-99596000D03*
X210580000Y-95476000D03*
X212330000Y-95476000D03*
X210580000Y-91976000D03*
X212330000Y-91976000D03*
X210580000Y-87856000D03*
X212330000Y-87856000D03*
X210580000Y-84356000D03*
X212330000Y-84356000D03*
X210580000Y-80236000D03*
X212330000Y-80236000D03*
X210580000Y-76736000D03*
X212330000Y-76736000D03*
X210580000Y-72616000D03*
X212330000Y-72616000D03*
X210580000Y-69116000D03*
X212330000Y-69116000D03*
X210580000Y-64996000D03*
X212330000Y-64996000D03*
X210580000Y-61496000D03*
X212330000Y-61496000D03*
X210580000Y-57376000D03*
X212330000Y-57376000D03*
X210580000Y-53876000D03*
X212330000Y-53876000D03*
X210580000Y-49756000D03*
X212330000Y-49756000D03*
X210580000Y-46256000D03*
X212330000Y-46256000D03*
X210580000Y-42136000D03*
X212330000Y-42136000D03*
X210580000Y-38636000D03*
X212330000Y-38636000D03*
X210580000Y-34516000D03*
X212330000Y-34516000D03*
X210580000Y-31016000D03*
X212330000Y-31016000D03*
X204230000Y-148816000D03*
X205980000Y-148816000D03*
X204230000Y-145316000D03*
X205980000Y-145316000D03*
X204230000Y-141196000D03*
X205980000Y-141196000D03*
X204230000Y-137696000D03*
X205980000Y-137696000D03*
X204230000Y-133576000D03*
X205980000Y-133576000D03*
X204230000Y-130076000D03*
X205980000Y-130076000D03*
X204230000Y-125956000D03*
X205980000Y-125956000D03*
X204230000Y-122456000D03*
X205980000Y-122456000D03*
X204230000Y-118336000D03*
X205980000Y-118336000D03*
X204230000Y-114836000D03*
X205980000Y-114836000D03*
X204230000Y-110716000D03*
X205980000Y-110716000D03*
X204230000Y-107216000D03*
X205980000Y-107216000D03*
X204230000Y-103096000D03*
X205980000Y-103096000D03*
X204230000Y-99596000D03*
X205980000Y-99596000D03*
X204230000Y-95476000D03*
X205980000Y-95476000D03*
X204230000Y-91976000D03*
X205980000Y-91976000D03*
X204230000Y-87856000D03*
X205980000Y-87856000D03*
X204230000Y-84356000D03*
X205980000Y-84356000D03*
X204230000Y-80236000D03*
X205980000Y-80236000D03*
X204230000Y-76736000D03*
X205980000Y-76736000D03*
X204230000Y-72616000D03*
X205980000Y-72616000D03*
X204230000Y-69116000D03*
X205980000Y-69116000D03*
X204230000Y-64996000D03*
X205980000Y-64996000D03*
X204230000Y-61496000D03*
X205980000Y-61496000D03*
X204230000Y-57376000D03*
X205980000Y-57376000D03*
X204230000Y-53876000D03*
X205980000Y-53876000D03*
X204230000Y-49756000D03*
X205980000Y-49756000D03*
X204230000Y-46256000D03*
X205980000Y-46256000D03*
X204230000Y-42136000D03*
X205980000Y-42136000D03*
X204230000Y-38636000D03*
X205980000Y-38636000D03*
X204230000Y-34516000D03*
X205980000Y-34516000D03*
X204230000Y-31016000D03*
X205980000Y-31016000D03*
X197880000Y-148816000D03*
X199630000Y-148816000D03*
X197880000Y-145316000D03*
X199630000Y-145316000D03*
X197880000Y-141196000D03*
X199630000Y-141196000D03*
X197880000Y-137696000D03*
X199630000Y-137696000D03*
X197880000Y-133576000D03*
X199630000Y-133576000D03*
X197880000Y-130076000D03*
X199630000Y-130076000D03*
X197880000Y-125956000D03*
X199630000Y-125956000D03*
X197880000Y-122456000D03*
X199630000Y-122456000D03*
X197880000Y-118336000D03*
X199630000Y-118336000D03*
X197880000Y-114836000D03*
X199630000Y-114836000D03*
X197880000Y-110716000D03*
X199630000Y-110716000D03*
X197880000Y-107216000D03*
X199630000Y-107216000D03*
X197880000Y-103096000D03*
X199630000Y-103096000D03*
X197880000Y-99596000D03*
X199630000Y-99596000D03*
X197880000Y-95476000D03*
X199630000Y-95476000D03*
X197880000Y-91976000D03*
X199630000Y-91976000D03*
X197880000Y-87856000D03*
X199630000Y-87856000D03*
X197880000Y-84356000D03*
X199630000Y-84356000D03*
X197880000Y-80236000D03*
X199630000Y-80236000D03*
X197880000Y-76736000D03*
X199630000Y-76736000D03*
X197880000Y-72616000D03*
X199630000Y-72616000D03*
X197880000Y-69116000D03*
X199630000Y-69116000D03*
X197880000Y-64996000D03*
X199630000Y-64996000D03*
X197880000Y-61496000D03*
X199630000Y-61496000D03*
X197880000Y-57376000D03*
X199630000Y-57376000D03*
X197880000Y-53876000D03*
X199630000Y-53876000D03*
X197880000Y-49756000D03*
X199630000Y-49756000D03*
X197880000Y-46256000D03*
X199630000Y-46256000D03*
X197880000Y-42136000D03*
X199630000Y-42136000D03*
X197880000Y-38636000D03*
X199630000Y-38636000D03*
X197880000Y-34516000D03*
X199630000Y-34516000D03*
X197880000Y-31016000D03*
X199630000Y-31016000D03*
X191530000Y-148816000D03*
X193280000Y-148816000D03*
X191530000Y-145316000D03*
X193280000Y-145316000D03*
X191530000Y-141196000D03*
X193280000Y-141196000D03*
X191530000Y-137696000D03*
X193280000Y-137696000D03*
X191530000Y-133576000D03*
X193280000Y-133576000D03*
X191530000Y-130076000D03*
X193280000Y-130076000D03*
X191530000Y-125956000D03*
X193280000Y-125956000D03*
X191530000Y-122456000D03*
X193280000Y-122456000D03*
X191530000Y-118336000D03*
X193280000Y-118336000D03*
X191530000Y-114836000D03*
X193280000Y-114836000D03*
X191530000Y-110716000D03*
X193280000Y-110716000D03*
X191530000Y-107216000D03*
X193280000Y-107216000D03*
X191530000Y-103096000D03*
X193280000Y-103096000D03*
X191530000Y-99596000D03*
X193280000Y-99596000D03*
X191530000Y-95476000D03*
X193280000Y-95476000D03*
X191530000Y-91976000D03*
X193280000Y-91976000D03*
X191530000Y-87856000D03*
X193280000Y-87856000D03*
X191530000Y-84356000D03*
X193280000Y-84356000D03*
X191530000Y-80236000D03*
X193280000Y-80236000D03*
X191530000Y-76736000D03*
X193280000Y-76736000D03*
X191530000Y-72616000D03*
X193280000Y-72616000D03*
X191530000Y-69116000D03*
X193280000Y-69116000D03*
X191530000Y-64996000D03*
X193280000Y-64996000D03*
X191530000Y-61496000D03*
X193280000Y-61496000D03*
X191530000Y-57376000D03*
X193280000Y-57376000D03*
X191530000Y-53876000D03*
X193280000Y-53876000D03*
X191530000Y-49756000D03*
X193280000Y-49756000D03*
X191530000Y-46256000D03*
X193280000Y-46256000D03*
X191530000Y-42136000D03*
X193280000Y-42136000D03*
X191530000Y-38636000D03*
X193280000Y-38636000D03*
X191530000Y-34516000D03*
X193280000Y-34516000D03*
X191530000Y-31016000D03*
X193280000Y-31016000D03*
X185180000Y-148816000D03*
X186930000Y-148816000D03*
X185180000Y-145316000D03*
X186930000Y-145316000D03*
X185180000Y-141196000D03*
X186930000Y-141196000D03*
X185180000Y-137696000D03*
X186930000Y-137696000D03*
X185180000Y-133576000D03*
X186930000Y-133576000D03*
X185180000Y-130076000D03*
X186930000Y-130076000D03*
X185180000Y-125956000D03*
X186930000Y-125956000D03*
X185180000Y-122456000D03*
X186930000Y-122456000D03*
X185180000Y-118336000D03*
X186930000Y-118336000D03*
X185180000Y-114836000D03*
X186930000Y-114836000D03*
X185180000Y-110716000D03*
X186930000Y-110716000D03*
X185180000Y-107216000D03*
X186930000Y-107216000D03*
X185180000Y-103096000D03*
X186930000Y-103096000D03*
X185180000Y-99596000D03*
X186930000Y-99596000D03*
X185180000Y-95476000D03*
X186930000Y-95476000D03*
X185180000Y-91976000D03*
X186930000Y-91976000D03*
X185180000Y-87856000D03*
X186930000Y-87856000D03*
X185180000Y-84356000D03*
X186930000Y-84356000D03*
X185180000Y-80236000D03*
X186930000Y-80236000D03*
X185180000Y-76736000D03*
X186930000Y-76736000D03*
X185180000Y-72616000D03*
X186930000Y-72616000D03*
X185180000Y-69116000D03*
X186930000Y-69116000D03*
X185180000Y-64996000D03*
X186930000Y-64996000D03*
X185180000Y-61496000D03*
X186930000Y-61496000D03*
X185180000Y-57376000D03*
X186930000Y-57376000D03*
X185180000Y-53876000D03*
X186930000Y-53876000D03*
X185180000Y-49756000D03*
X186930000Y-49756000D03*
X185180000Y-46256000D03*
X186930000Y-46256000D03*
X185180000Y-42136000D03*
X186930000Y-42136000D03*
X185180000Y-38636000D03*
X186930000Y-38636000D03*
X185180000Y-34516000D03*
X186930000Y-34516000D03*
X185180000Y-31016000D03*
X186930000Y-31016000D03*
X178830000Y-148816000D03*
X180580000Y-148816000D03*
X178830000Y-145316000D03*
X180580000Y-145316000D03*
X178830000Y-141196000D03*
X180580000Y-141196000D03*
X178830000Y-137696000D03*
X180580000Y-137696000D03*
X178830000Y-133576000D03*
X180580000Y-133576000D03*
X178830000Y-130076000D03*
X180580000Y-130076000D03*
X178830000Y-125956000D03*
X180580000Y-125956000D03*
X178830000Y-122456000D03*
X180580000Y-122456000D03*
X178830000Y-118336000D03*
X180580000Y-118336000D03*
X178830000Y-114836000D03*
X180580000Y-114836000D03*
X178830000Y-110716000D03*
X180580000Y-110716000D03*
X178830000Y-107216000D03*
X180580000Y-107216000D03*
X178830000Y-103096000D03*
X180580000Y-103096000D03*
X178830000Y-99596000D03*
X180580000Y-99596000D03*
X178830000Y-95476000D03*
X180580000Y-95476000D03*
X178830000Y-91976000D03*
X180580000Y-91976000D03*
X178830000Y-87856000D03*
X180580000Y-87856000D03*
X178830000Y-84356000D03*
X180580000Y-84356000D03*
X178830000Y-80236000D03*
X180580000Y-80236000D03*
X178830000Y-76736000D03*
X180580000Y-76736000D03*
X178830000Y-72616000D03*
X180580000Y-72616000D03*
X178830000Y-69116000D03*
X180580000Y-69116000D03*
X178830000Y-64996000D03*
X180580000Y-64996000D03*
X178830000Y-61496000D03*
X180580000Y-61496000D03*
X178830000Y-57376000D03*
X180580000Y-57376000D03*
X178830000Y-53876000D03*
X180580000Y-53876000D03*
X178830000Y-49756000D03*
X180580000Y-49756000D03*
X178830000Y-46256000D03*
X180580000Y-46256000D03*
X178830000Y-42136000D03*
X180580000Y-42136000D03*
X178830000Y-38636000D03*
X180580000Y-38636000D03*
X178830000Y-34516000D03*
X180580000Y-34516000D03*
X178830000Y-31016000D03*
X180580000Y-31016000D03*
X172480000Y-148816000D03*
X174230000Y-148816000D03*
X172480000Y-145316000D03*
X174230000Y-145316000D03*
X172480000Y-141196000D03*
X174230000Y-141196000D03*
X172480000Y-137696000D03*
X174230000Y-137696000D03*
X172480000Y-133576000D03*
X174230000Y-133576000D03*
X172480000Y-130076000D03*
X174230000Y-130076000D03*
X172480000Y-125956000D03*
X174230000Y-125956000D03*
X172480000Y-122456000D03*
X174230000Y-122456000D03*
X172480000Y-118336000D03*
X174230000Y-118336000D03*
X172480000Y-114836000D03*
X174230000Y-114836000D03*
X172480000Y-110716000D03*
X174230000Y-110716000D03*
X172480000Y-107216000D03*
X174230000Y-107216000D03*
X172480000Y-103096000D03*
X174230000Y-103096000D03*
X172480000Y-99596000D03*
X174230000Y-99596000D03*
X172480000Y-95476000D03*
X174230000Y-95476000D03*
X172480000Y-91976000D03*
X174230000Y-91976000D03*
X172480000Y-87856000D03*
X174230000Y-87856000D03*
X172480000Y-84356000D03*
X174230000Y-84356000D03*
X172480000Y-80236000D03*
X174230000Y-80236000D03*
X172480000Y-76736000D03*
X174230000Y-76736000D03*
X172480000Y-72616000D03*
X174230000Y-72616000D03*
X172480000Y-69116000D03*
X174230000Y-69116000D03*
X172480000Y-64996000D03*
X174230000Y-64996000D03*
X172480000Y-61496000D03*
X174230000Y-61496000D03*
X172480000Y-57376000D03*
X174230000Y-57376000D03*
X172480000Y-53876000D03*
X174230000Y-53876000D03*
X172480000Y-49756000D03*
X174230000Y-49756000D03*
X172480000Y-46256000D03*
X174230000Y-46256000D03*
X172480000Y-42136000D03*
X174230000Y-42136000D03*
X172480000Y-38636000D03*
X174230000Y-38636000D03*
X172480000Y-34516000D03*
X174230000Y-34516000D03*
X172480000Y-31016000D03*
X174230000Y-31016000D03*
X166130000Y-148816000D03*
X167880000Y-148816000D03*
X166130000Y-145316000D03*
X167880000Y-145316000D03*
X166130000Y-141196000D03*
X167880000Y-141196000D03*
X166130000Y-137696000D03*
X167880000Y-137696000D03*
X166130000Y-133576000D03*
X167880000Y-133576000D03*
X166130000Y-130076000D03*
X167880000Y-130076000D03*
X166130000Y-125956000D03*
X167880000Y-125956000D03*
X166130000Y-122456000D03*
X167880000Y-122456000D03*
X166130000Y-118336000D03*
X167880000Y-118336000D03*
X166130000Y-114836000D03*
X167880000Y-114836000D03*
X166130000Y-110716000D03*
X167880000Y-110716000D03*
X166130000Y-107216000D03*
X167880000Y-107216000D03*
X166130000Y-103096000D03*
X167880000Y-103096000D03*
X166130000Y-99596000D03*
X167880000Y-99596000D03*
X166130000Y-95476000D03*
X167880000Y-95476000D03*
X166130000Y-91976000D03*
X167880000Y-91976000D03*
X166130000Y-87856000D03*
X167880000Y-87856000D03*
X166130000Y-84356000D03*
X167880000Y-84356000D03*
X166130000Y-80236000D03*
X167880000Y-80236000D03*
X166130000Y-76736000D03*
X167880000Y-76736000D03*
X166130000Y-72616000D03*
X167880000Y-72616000D03*
X166130000Y-69116000D03*
X167880000Y-69116000D03*
X166130000Y-64996000D03*
X167880000Y-64996000D03*
X166130000Y-61496000D03*
X167880000Y-61496000D03*
X166130000Y-57376000D03*
X167880000Y-57376000D03*
X166130000Y-53876000D03*
X167880000Y-53876000D03*
X166130000Y-49756000D03*
X167880000Y-49756000D03*
X166130000Y-46256000D03*
X167880000Y-46256000D03*
X166130000Y-42136000D03*
X167880000Y-42136000D03*
X166130000Y-38636000D03*
X167880000Y-38636000D03*
X166130000Y-34516000D03*
X167880000Y-34516000D03*
X166130000Y-31016000D03*
X167880000Y-31016000D03*
X159780000Y-148816000D03*
X161530000Y-148816000D03*
X159780000Y-145316000D03*
X161530000Y-145316000D03*
X159780000Y-141196000D03*
X161530000Y-141196000D03*
X159780000Y-137696000D03*
X161530000Y-137696000D03*
X159780000Y-133576000D03*
X161530000Y-133576000D03*
X159780000Y-130076000D03*
X161530000Y-130076000D03*
X159780000Y-125956000D03*
X161530000Y-125956000D03*
X159780000Y-122456000D03*
X161530000Y-122456000D03*
X159780000Y-118336000D03*
X161530000Y-118336000D03*
X159780000Y-114836000D03*
X161530000Y-114836000D03*
X159780000Y-110716000D03*
X161530000Y-110716000D03*
X159780000Y-107216000D03*
X161530000Y-107216000D03*
X159780000Y-103096000D03*
X161530000Y-103096000D03*
X159780000Y-99596000D03*
X161530000Y-99596000D03*
X159780000Y-95476000D03*
X161530000Y-95476000D03*
X159780000Y-91976000D03*
X161530000Y-91976000D03*
X159780000Y-87856000D03*
X161530000Y-87856000D03*
X159780000Y-84356000D03*
X161530000Y-84356000D03*
X159780000Y-80236000D03*
X161530000Y-80236000D03*
X159780000Y-76736000D03*
X161530000Y-76736000D03*
X159780000Y-72616000D03*
X161530000Y-72616000D03*
X159780000Y-69116000D03*
X161530000Y-69116000D03*
X159780000Y-64996000D03*
X161530000Y-64996000D03*
X159780000Y-61496000D03*
X161530000Y-61496000D03*
X159780000Y-57376000D03*
X161530000Y-57376000D03*
X159780000Y-53876000D03*
X161530000Y-53876000D03*
X159780000Y-49756000D03*
X161530000Y-49756000D03*
X159780000Y-46256000D03*
X161530000Y-46256000D03*
X159780000Y-42136000D03*
X161530000Y-42136000D03*
X159780000Y-38636000D03*
X161530000Y-38636000D03*
X159780000Y-34516000D03*
X161530000Y-34516000D03*
X159780000Y-31016000D03*
X161530000Y-31016000D03*
X153430000Y-148816000D03*
X155180000Y-148816000D03*
X153430000Y-145316000D03*
X155180000Y-145316000D03*
X153430000Y-141196000D03*
X155180000Y-141196000D03*
X153430000Y-137696000D03*
X155180000Y-137696000D03*
X153430000Y-133576000D03*
X155180000Y-133576000D03*
X153430000Y-130076000D03*
X155180000Y-130076000D03*
X153430000Y-125956000D03*
X155180000Y-125956000D03*
X153430000Y-122456000D03*
X155180000Y-122456000D03*
X153430000Y-118336000D03*
X155180000Y-118336000D03*
X153430000Y-114836000D03*
X155180000Y-114836000D03*
X153430000Y-110716000D03*
X155180000Y-110716000D03*
X153430000Y-107216000D03*
X155180000Y-107216000D03*
X153430000Y-103096000D03*
X155180000Y-103096000D03*
X153430000Y-99596000D03*
X155180000Y-99596000D03*
X153430000Y-95476000D03*
X155180000Y-95476000D03*
X153430000Y-91976000D03*
X155180000Y-91976000D03*
X153430000Y-87856000D03*
X155180000Y-87856000D03*
X153430000Y-84356000D03*
X155180000Y-84356000D03*
X153430000Y-80236000D03*
X155180000Y-80236000D03*
X153430000Y-76736000D03*
X155180000Y-76736000D03*
X153430000Y-72616000D03*
X155180000Y-72616000D03*
X153430000Y-69116000D03*
X155180000Y-69116000D03*
X153430000Y-64996000D03*
X155180000Y-64996000D03*
X153430000Y-61496000D03*
X155180000Y-61496000D03*
X153430000Y-57376000D03*
X155180000Y-57376000D03*
X153430000Y-53876000D03*
X155180000Y-53876000D03*
X153430000Y-49756000D03*
X155180000Y-49756000D03*
X153430000Y-46256000D03*
X155180000Y-46256000D03*
X153430000Y-42136000D03*
X155180000Y-42136000D03*
X153430000Y-38636000D03*
X155180000Y-38636000D03*
X153430000Y-34516000D03*
X155180000Y-34516000D03*
X153430000Y-31016000D03*
X155180000Y-31016000D03*
X147080000Y-148816000D03*
X148830000Y-148816000D03*
X147080000Y-145316000D03*
X148830000Y-145316000D03*
X147080000Y-141196000D03*
X148830000Y-141196000D03*
X147080000Y-137696000D03*
X148830000Y-137696000D03*
X147080000Y-133576000D03*
X148830000Y-133576000D03*
X147080000Y-130076000D03*
X148830000Y-130076000D03*
X147080000Y-125956000D03*
X148830000Y-125956000D03*
X147080000Y-122456000D03*
X148830000Y-122456000D03*
X147080000Y-118336000D03*
X148830000Y-118336000D03*
X147080000Y-114836000D03*
X148830000Y-114836000D03*
X147080000Y-110716000D03*
X148830000Y-110716000D03*
X147080000Y-107216000D03*
X148830000Y-107216000D03*
X147080000Y-103096000D03*
X148830000Y-103096000D03*
X147080000Y-99596000D03*
X148830000Y-99596000D03*
X147080000Y-95476000D03*
X148830000Y-95476000D03*
X147080000Y-91976000D03*
X148830000Y-91976000D03*
X147080000Y-87856000D03*
X148830000Y-87856000D03*
X147080000Y-84356000D03*
X148830000Y-84356000D03*
X147080000Y-80236000D03*
X148830000Y-80236000D03*
X147080000Y-76736000D03*
X148830000Y-76736000D03*
X147080000Y-72616000D03*
X148830000Y-72616000D03*
X147080000Y-69116000D03*
X148830000Y-69116000D03*
X147080000Y-64996000D03*
X148830000Y-64996000D03*
X147080000Y-61496000D03*
X148830000Y-61496000D03*
X147080000Y-57376000D03*
X148830000Y-57376000D03*
X147080000Y-53876000D03*
X148830000Y-53876000D03*
X147080000Y-49756000D03*
X148830000Y-49756000D03*
X147080000Y-46256000D03*
X148830000Y-46256000D03*
X147080000Y-42136000D03*
X148830000Y-42136000D03*
X147080000Y-38636000D03*
X148830000Y-38636000D03*
X147080000Y-34516000D03*
X148830000Y-34516000D03*
X147080000Y-31016000D03*
X148830000Y-31016000D03*
X140730000Y-148816000D03*
X142480000Y-148816000D03*
X140730000Y-145316000D03*
X142480000Y-145316000D03*
X140730000Y-141196000D03*
X142480000Y-141196000D03*
X140730000Y-137696000D03*
X142480000Y-137696000D03*
X140730000Y-133576000D03*
X142480000Y-133576000D03*
X140730000Y-130076000D03*
X142480000Y-130076000D03*
X140730000Y-125956000D03*
X142480000Y-125956000D03*
X140730000Y-122456000D03*
X142480000Y-122456000D03*
X140730000Y-118336000D03*
X142480000Y-118336000D03*
X140730000Y-114836000D03*
X142480000Y-114836000D03*
X140730000Y-110716000D03*
X142480000Y-110716000D03*
X140730000Y-107216000D03*
X142480000Y-107216000D03*
X140730000Y-103096000D03*
X142480000Y-103096000D03*
X140730000Y-99596000D03*
X142480000Y-99596000D03*
X140730000Y-95476000D03*
X142480000Y-95476000D03*
X140730000Y-91976000D03*
X142480000Y-91976000D03*
X140730000Y-87856000D03*
X142480000Y-87856000D03*
X140730000Y-84356000D03*
X142480000Y-84356000D03*
X140730000Y-80236000D03*
X142480000Y-80236000D03*
X140730000Y-76736000D03*
X142480000Y-76736000D03*
X140730000Y-72616000D03*
X142480000Y-72616000D03*
X140730000Y-69116000D03*
X142480000Y-69116000D03*
X140730000Y-64996000D03*
X142480000Y-64996000D03*
X140730000Y-61496000D03*
X142480000Y-61496000D03*
X140730000Y-57376000D03*
X142480000Y-57376000D03*
X140730000Y-53876000D03*
X142480000Y-53876000D03*
X140730000Y-49756000D03*
X142480000Y-49756000D03*
X140730000Y-46256000D03*
X142480000Y-46256000D03*
X140730000Y-42136000D03*
X142480000Y-42136000D03*
X140730000Y-38636000D03*
X142480000Y-38636000D03*
X140730000Y-34516000D03*
X142480000Y-34516000D03*
X140730000Y-31016000D03*
X142480000Y-31016000D03*
X134380000Y-148816000D03*
X136130000Y-148816000D03*
X134380000Y-145316000D03*
X136130000Y-145316000D03*
X134380000Y-141196000D03*
X136130000Y-141196000D03*
X134380000Y-137696000D03*
X136130000Y-137696000D03*
X134380000Y-133576000D03*
X136130000Y-133576000D03*
X134380000Y-130076000D03*
X136130000Y-130076000D03*
X134380000Y-125956000D03*
X136130000Y-125956000D03*
X134380000Y-122456000D03*
X136130000Y-122456000D03*
X134380000Y-118336000D03*
X136130000Y-118336000D03*
X134380000Y-114836000D03*
X136130000Y-114836000D03*
X134380000Y-110716000D03*
X136130000Y-110716000D03*
X134380000Y-107216000D03*
X136130000Y-107216000D03*
X134380000Y-103096000D03*
X136130000Y-103096000D03*
X134380000Y-99596000D03*
X136130000Y-99596000D03*
X134380000Y-95476000D03*
X136130000Y-95476000D03*
X134380000Y-91976000D03*
X136130000Y-91976000D03*
X134380000Y-87856000D03*
X136130000Y-87856000D03*
X134380000Y-84356000D03*
X136130000Y-84356000D03*
X134380000Y-80236000D03*
X136130000Y-80236000D03*
X134380000Y-76736000D03*
X136130000Y-76736000D03*
X134380000Y-72616000D03*
X136130000Y-72616000D03*
X134380000Y-69116000D03*
X136130000Y-69116000D03*
X134380000Y-64996000D03*
X136130000Y-64996000D03*
X134380000Y-61496000D03*
X136130000Y-61496000D03*
X134380000Y-57376000D03*
X136130000Y-57376000D03*
X134380000Y-53876000D03*
X136130000Y-53876000D03*
X134380000Y-49756000D03*
X136130000Y-49756000D03*
X134380000Y-46256000D03*
X136130000Y-46256000D03*
X134380000Y-42136000D03*
X136130000Y-42136000D03*
X134380000Y-38636000D03*
X136130000Y-38636000D03*
X134380000Y-34516000D03*
X136130000Y-34516000D03*
X134380000Y-31016000D03*
X136130000Y-31016000D03*
X128030000Y-148816000D03*
X129780000Y-148816000D03*
X128030000Y-145316000D03*
X129780000Y-145316000D03*
X128030000Y-141196000D03*
X129780000Y-141196000D03*
X128030000Y-137696000D03*
X129780000Y-137696000D03*
X128030000Y-133576000D03*
X129780000Y-133576000D03*
X128030000Y-130076000D03*
X129780000Y-130076000D03*
X128030000Y-125956000D03*
X129780000Y-125956000D03*
X128030000Y-122456000D03*
X129780000Y-122456000D03*
X128030000Y-118336000D03*
X129780000Y-118336000D03*
X128030000Y-114836000D03*
X129780000Y-114836000D03*
X128030000Y-110716000D03*
X129780000Y-110716000D03*
X128030000Y-107216000D03*
X129780000Y-107216000D03*
X128030000Y-103096000D03*
X129780000Y-103096000D03*
X128030000Y-99596000D03*
X129780000Y-99596000D03*
X128030000Y-95476000D03*
X129780000Y-95476000D03*
X128030000Y-91976000D03*
X129780000Y-91976000D03*
X128030000Y-87856000D03*
X129780000Y-87856000D03*
X128030000Y-84356000D03*
X129780000Y-84356000D03*
X128030000Y-80236000D03*
X129780000Y-80236000D03*
X128030000Y-76736000D03*
X129780000Y-76736000D03*
X128030000Y-72616000D03*
X129780000Y-72616000D03*
X128030000Y-69116000D03*
X129780000Y-69116000D03*
X128030000Y-64996000D03*
X129780000Y-64996000D03*
X128030000Y-61496000D03*
X129780000Y-61496000D03*
X128030000Y-57376000D03*
X129780000Y-57376000D03*
X128030000Y-53876000D03*
X129780000Y-53876000D03*
X128030000Y-49756000D03*
X129780000Y-49756000D03*
X128030000Y-46256000D03*
X129780000Y-46256000D03*
X128030000Y-42136000D03*
X129780000Y-42136000D03*
X128030000Y-38636000D03*
X129780000Y-38636000D03*
X128030000Y-34516000D03*
X129780000Y-34516000D03*
X128030000Y-31016000D03*
X129780000Y-31016000D03*
X121680000Y-148816000D03*
X123430000Y-148816000D03*
X121680000Y-145316000D03*
X123430000Y-145316000D03*
X121680000Y-141196000D03*
X123430000Y-141196000D03*
X121680000Y-137696000D03*
X123430000Y-137696000D03*
X121680000Y-133576000D03*
X123430000Y-133576000D03*
X121680000Y-130076000D03*
X123430000Y-130076000D03*
X121680000Y-125956000D03*
X123430000Y-125956000D03*
X121680000Y-122456000D03*
X123430000Y-122456000D03*
X121680000Y-118336000D03*
X123430000Y-118336000D03*
X121680000Y-114836000D03*
X123430000Y-114836000D03*
X121680000Y-110716000D03*
X123430000Y-110716000D03*
X121680000Y-107216000D03*
X123430000Y-107216000D03*
X121680000Y-103096000D03*
X123430000Y-103096000D03*
X121680000Y-99596000D03*
X123430000Y-99596000D03*
X121680000Y-95476000D03*
X123430000Y-95476000D03*
X121680000Y-91976000D03*
X123430000Y-91976000D03*
X121680000Y-87856000D03*
X123430000Y-87856000D03*
X121680000Y-84356000D03*
X123430000Y-84356000D03*
X121680000Y-80236000D03*
X123430000Y-80236000D03*
X121680000Y-76736000D03*
X123430000Y-76736000D03*
X121680000Y-72616000D03*
X123430000Y-72616000D03*
X121680000Y-69116000D03*
X123430000Y-69116000D03*
X121680000Y-64996000D03*
X123430000Y-64996000D03*
X121680000Y-61496000D03*
X123430000Y-61496000D03*
X121680000Y-57376000D03*
X123430000Y-57376000D03*
X121680000Y-53876000D03*
X123430000Y-53876000D03*
X121680000Y-49756000D03*
X123430000Y-49756000D03*
X121680000Y-46256000D03*
X123430000Y-46256000D03*
X121680000Y-42136000D03*
X123430000Y-42136000D03*
X121680000Y-38636000D03*
X123430000Y-38636000D03*
X121680000Y-34516000D03*
X123430000Y-34516000D03*
X121680000Y-31016000D03*
X123430000Y-31016000D03*
X115330000Y-148816000D03*
X117080000Y-148816000D03*
X115330000Y-145316000D03*
X117080000Y-145316000D03*
X115330000Y-141196000D03*
X117080000Y-141196000D03*
X115330000Y-137696000D03*
X117080000Y-137696000D03*
X115330000Y-133576000D03*
X117080000Y-133576000D03*
X115330000Y-130076000D03*
X117080000Y-130076000D03*
X115330000Y-125956000D03*
X117080000Y-125956000D03*
X115330000Y-122456000D03*
X117080000Y-122456000D03*
X115330000Y-118336000D03*
X117080000Y-118336000D03*
X115330000Y-114836000D03*
X117080000Y-114836000D03*
X115330000Y-110716000D03*
X117080000Y-110716000D03*
X115330000Y-107216000D03*
X117080000Y-107216000D03*
X115330000Y-103096000D03*
X117080000Y-103096000D03*
X115330000Y-99596000D03*
X117080000Y-99596000D03*
X115330000Y-95476000D03*
X117080000Y-95476000D03*
X115330000Y-91976000D03*
X117080000Y-91976000D03*
X115330000Y-87856000D03*
X117080000Y-87856000D03*
X115330000Y-84356000D03*
X117080000Y-84356000D03*
X115330000Y-80236000D03*
X117080000Y-80236000D03*
X115330000Y-76736000D03*
X117080000Y-76736000D03*
X115330000Y-72616000D03*
X117080000Y-72616000D03*
X115330000Y-69116000D03*
X117080000Y-69116000D03*
X115330000Y-64996000D03*
X117080000Y-64996000D03*
X115330000Y-61496000D03*
X117080000Y-61496000D03*
X115330000Y-57376000D03*
X117080000Y-57376000D03*
X115330000Y-53876000D03*
X117080000Y-53876000D03*
X115330000Y-49756000D03*
X117080000Y-49756000D03*
X115330000Y-46256000D03*
X117080000Y-46256000D03*
X115330000Y-42136000D03*
X117080000Y-42136000D03*
X115330000Y-38636000D03*
X117080000Y-38636000D03*
X115330000Y-34516000D03*
X117080000Y-34516000D03*
X115330000Y-31016000D03*
X117080000Y-31016000D03*
X108980000Y-148816000D03*
X110730000Y-148816000D03*
X108980000Y-145316000D03*
X110730000Y-145316000D03*
X108980000Y-141196000D03*
X110730000Y-141196000D03*
X108980000Y-137696000D03*
X110730000Y-137696000D03*
X108980000Y-133576000D03*
X110730000Y-133576000D03*
X108980000Y-130076000D03*
X110730000Y-130076000D03*
X108980000Y-125956000D03*
X110730000Y-125956000D03*
X108980000Y-122456000D03*
X110730000Y-122456000D03*
X108980000Y-118336000D03*
X110730000Y-118336000D03*
X108980000Y-114836000D03*
X110730000Y-114836000D03*
X108980000Y-110716000D03*
X110730000Y-110716000D03*
X108980000Y-107216000D03*
X110730000Y-107216000D03*
X108980000Y-103096000D03*
X110730000Y-103096000D03*
X108980000Y-99596000D03*
X110730000Y-99596000D03*
X108980000Y-95476000D03*
X110730000Y-95476000D03*
X108980000Y-91976000D03*
X110730000Y-91976000D03*
X108980000Y-87856000D03*
X110730000Y-87856000D03*
X108980000Y-84356000D03*
X110730000Y-84356000D03*
X108980000Y-80236000D03*
X110730000Y-80236000D03*
X108980000Y-76736000D03*
X110730000Y-76736000D03*
X108980000Y-72616000D03*
X110730000Y-72616000D03*
X108980000Y-69116000D03*
X110730000Y-69116000D03*
X108980000Y-64996000D03*
X110730000Y-64996000D03*
X108980000Y-61496000D03*
X110730000Y-61496000D03*
X108980000Y-57376000D03*
X110730000Y-57376000D03*
X108980000Y-53876000D03*
X110730000Y-53876000D03*
X108980000Y-49756000D03*
X110730000Y-49756000D03*
X108980000Y-46256000D03*
X110730000Y-46256000D03*
X108980000Y-42136000D03*
X110730000Y-42136000D03*
X108980000Y-38636000D03*
X110730000Y-38636000D03*
X108980000Y-34516000D03*
X110730000Y-34516000D03*
X108980000Y-31016000D03*
X110730000Y-31016000D03*
X102630000Y-148816000D03*
X104380000Y-148816000D03*
X102630000Y-145316000D03*
X104380000Y-145316000D03*
X102630000Y-141196000D03*
X104380000Y-141196000D03*
X102630000Y-137696000D03*
X104380000Y-137696000D03*
X102630000Y-133576000D03*
X104380000Y-133576000D03*
X102630000Y-130076000D03*
X104380000Y-130076000D03*
X102630000Y-125956000D03*
X104380000Y-125956000D03*
X102630000Y-122456000D03*
X104380000Y-122456000D03*
X102630000Y-118336000D03*
X104380000Y-118336000D03*
X102630000Y-114836000D03*
X104380000Y-114836000D03*
X102630000Y-110716000D03*
X104380000Y-110716000D03*
X102630000Y-107216000D03*
X104380000Y-107216000D03*
X102630000Y-103096000D03*
X104380000Y-103096000D03*
X102630000Y-99596000D03*
X104380000Y-99596000D03*
X102630000Y-95476000D03*
X104380000Y-95476000D03*
X102630000Y-91976000D03*
X104380000Y-91976000D03*
X102630000Y-87856000D03*
X104380000Y-87856000D03*
X102630000Y-84356000D03*
X104380000Y-84356000D03*
X102630000Y-80236000D03*
X104380000Y-80236000D03*
X102630000Y-76736000D03*
X104380000Y-76736000D03*
X102630000Y-72616000D03*
X104380000Y-72616000D03*
X102630000Y-69116000D03*
X104380000Y-69116000D03*
X102630000Y-64996000D03*
X104380000Y-64996000D03*
X102630000Y-61496000D03*
X104380000Y-61496000D03*
X102630000Y-57376000D03*
X104380000Y-57376000D03*
X102630000Y-53876000D03*
X104380000Y-53876000D03*
X102630000Y-49756000D03*
X104380000Y-49756000D03*
X102630000Y-46256000D03*
X104380000Y-46256000D03*
X102630000Y-42136000D03*
X104380000Y-42136000D03*
X102630000Y-38636000D03*
X104380000Y-38636000D03*
X102630000Y-34516000D03*
X104380000Y-34516000D03*
X102630000Y-31016000D03*
X104380000Y-31016000D03*
X96280000Y-148816000D03*
X98030000Y-148816000D03*
X96280000Y-145316000D03*
X98030000Y-145316000D03*
X96280000Y-141196000D03*
X98030000Y-141196000D03*
X96280000Y-137696000D03*
X98030000Y-137696000D03*
X96280000Y-133576000D03*
X98030000Y-133576000D03*
X96280000Y-130076000D03*
X98030000Y-130076000D03*
X96280000Y-125956000D03*
X98030000Y-125956000D03*
X96280000Y-122456000D03*
X98030000Y-122456000D03*
X96280000Y-118336000D03*
X98030000Y-118336000D03*
X96280000Y-114836000D03*
X98030000Y-114836000D03*
X96280000Y-110716000D03*
X98030000Y-110716000D03*
X96280000Y-107216000D03*
X98030000Y-107216000D03*
X96280000Y-103096000D03*
X98030000Y-103096000D03*
X96280000Y-99596000D03*
X98030000Y-99596000D03*
X96280000Y-95476000D03*
X98030000Y-95476000D03*
X96280000Y-91976000D03*
X98030000Y-91976000D03*
X96280000Y-87856000D03*
X98030000Y-87856000D03*
X96280000Y-84356000D03*
X98030000Y-84356000D03*
X96280000Y-80236000D03*
X98030000Y-80236000D03*
X96280000Y-76736000D03*
X98030000Y-76736000D03*
X96280000Y-72616000D03*
X98030000Y-72616000D03*
X96280000Y-69116000D03*
X98030000Y-69116000D03*
X96280000Y-64996000D03*
X98030000Y-64996000D03*
X96280000Y-61496000D03*
X98030000Y-61496000D03*
X96280000Y-57376000D03*
X98030000Y-57376000D03*
X96280000Y-53876000D03*
X98030000Y-53876000D03*
X96280000Y-49756000D03*
X98030000Y-49756000D03*
X96280000Y-46256000D03*
X98030000Y-46256000D03*
X96280000Y-42136000D03*
X98030000Y-42136000D03*
X96280000Y-38636000D03*
X98030000Y-38636000D03*
X96280000Y-34516000D03*
X98030000Y-34516000D03*
X96280000Y-31016000D03*
X98030000Y-31016000D03*
X89930000Y-148816000D03*
X91680000Y-148816000D03*
X89930000Y-145316000D03*
X91680000Y-145316000D03*
X89930000Y-141196000D03*
X91680000Y-141196000D03*
X89930000Y-137696000D03*
X91680000Y-137696000D03*
X89930000Y-133576000D03*
X91680000Y-133576000D03*
X89930000Y-130076000D03*
X91680000Y-130076000D03*
X89930000Y-125956000D03*
X91680000Y-125956000D03*
X89930000Y-122456000D03*
X91680000Y-122456000D03*
X89930000Y-118336000D03*
X91680000Y-118336000D03*
X89930000Y-114836000D03*
X91680000Y-114836000D03*
X89930000Y-110716000D03*
X91680000Y-110716000D03*
X89930000Y-107216000D03*
X91680000Y-107216000D03*
X89930000Y-103096000D03*
X91680000Y-103096000D03*
X89930000Y-99596000D03*
X91680000Y-99596000D03*
X89930000Y-95476000D03*
X91680000Y-95476000D03*
X89930000Y-91976000D03*
X91680000Y-91976000D03*
X89930000Y-87856000D03*
X91680000Y-87856000D03*
X89930000Y-84356000D03*
X91680000Y-84356000D03*
X89930000Y-80236000D03*
X91680000Y-80236000D03*
X89930000Y-76736000D03*
X91680000Y-76736000D03*
X89930000Y-72616000D03*
X91680000Y-72616000D03*
X89930000Y-69116000D03*
X91680000Y-69116000D03*
X89930000Y-64996000D03*
X91680000Y-64996000D03*
X89930000Y-61496000D03*
X91680000Y-61496000D03*
X89930000Y-57376000D03*
X91680000Y-57376000D03*
X89930000Y-53876000D03*
X91680000Y-53876000D03*
X89930000Y-49756000D03*
X91680000Y-49756000D03*
X89930000Y-46256000D03*
X91680000Y-46256000D03*
X89930000Y-42136000D03*
X91680000Y-42136000D03*
X89930000Y-38636000D03*
X91680000Y-38636000D03*
X89930000Y-34516000D03*
X91680000Y-34516000D03*
X89930000Y-31016000D03*
X91680000Y-31016000D03*
X83580000Y-148816000D03*
X85330000Y-148816000D03*
X83580000Y-145316000D03*
X85330000Y-145316000D03*
X83580000Y-141196000D03*
X85330000Y-141196000D03*
X83580000Y-137696000D03*
X85330000Y-137696000D03*
X83580000Y-133576000D03*
X85330000Y-133576000D03*
X83580000Y-130076000D03*
X85330000Y-130076000D03*
X83580000Y-125956000D03*
X85330000Y-125956000D03*
X83580000Y-122456000D03*
X85330000Y-122456000D03*
X83580000Y-118336000D03*
X85330000Y-118336000D03*
X83580000Y-114836000D03*
X85330000Y-114836000D03*
X83580000Y-110716000D03*
X85330000Y-110716000D03*
X83580000Y-107216000D03*
X85330000Y-107216000D03*
X83580000Y-103096000D03*
X85330000Y-103096000D03*
X83580000Y-99596000D03*
X85330000Y-99596000D03*
X83580000Y-95476000D03*
X85330000Y-95476000D03*
X83580000Y-91976000D03*
X85330000Y-91976000D03*
X83580000Y-87856000D03*
X85330000Y-87856000D03*
X83580000Y-84356000D03*
X85330000Y-84356000D03*
X83580000Y-80236000D03*
X85330000Y-80236000D03*
X83580000Y-76736000D03*
X85330000Y-76736000D03*
X83580000Y-72616000D03*
X85330000Y-72616000D03*
X83580000Y-69116000D03*
X85330000Y-69116000D03*
X83580000Y-64996000D03*
X85330000Y-64996000D03*
X83580000Y-61496000D03*
X85330000Y-61496000D03*
X83580000Y-57376000D03*
X85330000Y-57376000D03*
X83580000Y-53876000D03*
X85330000Y-53876000D03*
X83580000Y-49756000D03*
X85330000Y-49756000D03*
X83580000Y-46256000D03*
X85330000Y-46256000D03*
X83580000Y-42136000D03*
X85330000Y-42136000D03*
X83580000Y-38636000D03*
X85330000Y-38636000D03*
X83580000Y-34516000D03*
X85330000Y-34516000D03*
X83580000Y-31016000D03*
X85330000Y-31016000D03*
X77230000Y-148816000D03*
X78980000Y-148816000D03*
X77230000Y-145316000D03*
X78980000Y-145316000D03*
X77230000Y-141196000D03*
X78980000Y-141196000D03*
X77230000Y-137696000D03*
X78980000Y-137696000D03*
X77230000Y-133576000D03*
X78980000Y-133576000D03*
X77230000Y-130076000D03*
X78980000Y-130076000D03*
X77230000Y-125956000D03*
X78980000Y-125956000D03*
X77230000Y-122456000D03*
X78980000Y-122456000D03*
X77230000Y-118336000D03*
X78980000Y-118336000D03*
X77230000Y-114836000D03*
X78980000Y-114836000D03*
X77230000Y-110716000D03*
X78980000Y-110716000D03*
X77230000Y-107216000D03*
X78980000Y-107216000D03*
X77230000Y-103096000D03*
X78980000Y-103096000D03*
X77230000Y-99596000D03*
X78980000Y-99596000D03*
X77230000Y-95476000D03*
X78980000Y-95476000D03*
X77230000Y-91976000D03*
X78980000Y-91976000D03*
X77230000Y-87856000D03*
X78980000Y-87856000D03*
X77230000Y-84356000D03*
X78980000Y-84356000D03*
X77230000Y-80236000D03*
X78980000Y-80236000D03*
X77230000Y-76736000D03*
X78980000Y-76736000D03*
X77230000Y-72616000D03*
X78980000Y-72616000D03*
X77230000Y-69116000D03*
X78980000Y-69116000D03*
X77230000Y-64996000D03*
X78980000Y-64996000D03*
X77230000Y-61496000D03*
X78980000Y-61496000D03*
X77230000Y-57376000D03*
X78980000Y-57376000D03*
X77230000Y-53876000D03*
X78980000Y-53876000D03*
X77230000Y-49756000D03*
X78980000Y-49756000D03*
X77230000Y-46256000D03*
X78980000Y-46256000D03*
X77230000Y-42136000D03*
X78980000Y-42136000D03*
X77230000Y-38636000D03*
X78980000Y-38636000D03*
X77230000Y-34516000D03*
X78980000Y-34516000D03*
X77230000Y-31016000D03*
X78980000Y-31016000D03*
X70880000Y-148816000D03*
X72630000Y-148816000D03*
X70880000Y-145316000D03*
X72630000Y-145316000D03*
X70880000Y-141196000D03*
X72630000Y-141196000D03*
X70880000Y-137696000D03*
X72630000Y-137696000D03*
X70880000Y-133576000D03*
X72630000Y-133576000D03*
X70880000Y-130076000D03*
X72630000Y-130076000D03*
X70880000Y-125956000D03*
X72630000Y-125956000D03*
X70880000Y-122456000D03*
X72630000Y-122456000D03*
X70880000Y-118336000D03*
X72630000Y-118336000D03*
X70880000Y-114836000D03*
X72630000Y-114836000D03*
X70880000Y-110716000D03*
X72630000Y-110716000D03*
X70880000Y-107216000D03*
X72630000Y-107216000D03*
X70880000Y-103096000D03*
X72630000Y-103096000D03*
X70880000Y-99596000D03*
X72630000Y-99596000D03*
X70880000Y-95476000D03*
X72630000Y-95476000D03*
X70880000Y-91976000D03*
X72630000Y-91976000D03*
X70880000Y-87856000D03*
X72630000Y-87856000D03*
X70880000Y-84356000D03*
X72630000Y-84356000D03*
X70880000Y-80236000D03*
X72630000Y-80236000D03*
X70880000Y-76736000D03*
X72630000Y-76736000D03*
X70880000Y-72616000D03*
X72630000Y-72616000D03*
X70880000Y-69116000D03*
X72630000Y-69116000D03*
X70880000Y-64996000D03*
X72630000Y-64996000D03*
X70880000Y-61496000D03*
X72630000Y-61496000D03*
X70880000Y-57376000D03*
X72630000Y-57376000D03*
X70880000Y-53876000D03*
X72630000Y-53876000D03*
X70880000Y-49756000D03*
X72630000Y-49756000D03*
X70880000Y-46256000D03*
X72630000Y-46256000D03*
X70880000Y-42136000D03*
X72630000Y-42136000D03*
X70880000Y-38636000D03*
X72630000Y-38636000D03*
X70880000Y-34516000D03*
X72630000Y-34516000D03*
X70880000Y-31016000D03*
X72630000Y-31016000D03*
X64530000Y-148816000D03*
X66280000Y-148816000D03*
X64530000Y-145316000D03*
X66280000Y-145316000D03*
X64530000Y-141196000D03*
X66280000Y-141196000D03*
X64530000Y-137696000D03*
X66280000Y-137696000D03*
X64530000Y-133576000D03*
X66280000Y-133576000D03*
X64530000Y-130076000D03*
X66280000Y-130076000D03*
X64530000Y-125956000D03*
X66280000Y-125956000D03*
X64530000Y-122456000D03*
X66280000Y-122456000D03*
X64530000Y-118336000D03*
X66280000Y-118336000D03*
X64530000Y-114836000D03*
X66280000Y-114836000D03*
X64530000Y-110716000D03*
X66280000Y-110716000D03*
X64530000Y-107216000D03*
X66280000Y-107216000D03*
X64530000Y-103096000D03*
X66280000Y-103096000D03*
X64530000Y-99596000D03*
X66280000Y-99596000D03*
X64530000Y-95476000D03*
X66280000Y-95476000D03*
X64530000Y-91976000D03*
X66280000Y-91976000D03*
X64530000Y-87856000D03*
X66280000Y-87856000D03*
X64530000Y-84356000D03*
X66280000Y-84356000D03*
X64530000Y-80236000D03*
X66280000Y-80236000D03*
X64530000Y-76736000D03*
X66280000Y-76736000D03*
X64530000Y-72616000D03*
X66280000Y-72616000D03*
X64530000Y-69116000D03*
X66280000Y-69116000D03*
X64530000Y-64996000D03*
X66280000Y-64996000D03*
X64530000Y-61496000D03*
X66280000Y-61496000D03*
X64530000Y-57376000D03*
X66280000Y-57376000D03*
X64530000Y-53876000D03*
X66280000Y-53876000D03*
X64530000Y-49756000D03*
X66280000Y-49756000D03*
X64530000Y-46256000D03*
X66280000Y-46256000D03*
X64530000Y-42136000D03*
X66280000Y-42136000D03*
X64530000Y-38636000D03*
X66280000Y-38636000D03*
X64530000Y-34516000D03*
X66280000Y-34516000D03*
X64530000Y-31016000D03*
X66280000Y-31016000D03*
X58180000Y-148816000D03*
X59930000Y-148816000D03*
X58180000Y-145316000D03*
X59930000Y-145316000D03*
X58180000Y-141196000D03*
X59930000Y-141196000D03*
X58180000Y-137696000D03*
X59930000Y-137696000D03*
X58180000Y-133576000D03*
X59930000Y-133576000D03*
X58180000Y-130076000D03*
X59930000Y-130076000D03*
X58180000Y-125956000D03*
X59930000Y-125956000D03*
X58180000Y-122456000D03*
X59930000Y-122456000D03*
X58180000Y-118336000D03*
X59930000Y-118336000D03*
X58180000Y-114836000D03*
X59930000Y-114836000D03*
X58180000Y-110716000D03*
X59930000Y-110716000D03*
X58180000Y-107216000D03*
X59930000Y-107216000D03*
X58180000Y-103096000D03*
X59930000Y-103096000D03*
X58180000Y-99596000D03*
X59930000Y-99596000D03*
X58180000Y-95476000D03*
X59930000Y-95476000D03*
X58180000Y-91976000D03*
X59930000Y-91976000D03*
X58180000Y-87856000D03*
X59930000Y-87856000D03*
X58180000Y-84356000D03*
X59930000Y-84356000D03*
X58180000Y-80236000D03*
X59930000Y-80236000D03*
X58180000Y-76736000D03*
X59930000Y-76736000D03*
X58180000Y-72616000D03*
X59930000Y-72616000D03*
X58180000Y-69116000D03*
X59930000Y-69116000D03*
X58180000Y-64996000D03*
X59930000Y-64996000D03*
X58180000Y-61496000D03*
X59930000Y-61496000D03*
X58180000Y-57376000D03*
X59930000Y-57376000D03*
X58180000Y-53876000D03*
X59930000Y-53876000D03*
X58180000Y-49756000D03*
X59930000Y-49756000D03*
X58180000Y-46256000D03*
X59930000Y-46256000D03*
X58180000Y-42136000D03*
X59930000Y-42136000D03*
X58180000Y-38636000D03*
X59930000Y-38636000D03*
X58180000Y-34516000D03*
X59930000Y-34516000D03*
X58180000Y-31016000D03*
X59930000Y-31016000D03*
X51830000Y-148816000D03*
X53580000Y-148816000D03*
X51830000Y-145316000D03*
X53580000Y-145316000D03*
X51830000Y-141196000D03*
X53580000Y-141196000D03*
X51830000Y-137696000D03*
X53580000Y-137696000D03*
X51830000Y-133576000D03*
X53580000Y-133576000D03*
X51830000Y-130076000D03*
X53580000Y-130076000D03*
X51830000Y-125956000D03*
X53580000Y-125956000D03*
X51830000Y-122456000D03*
X53580000Y-122456000D03*
X51830000Y-118336000D03*
X53580000Y-118336000D03*
X51830000Y-114836000D03*
X53580000Y-114836000D03*
X51830000Y-110716000D03*
X53580000Y-110716000D03*
X51830000Y-107216000D03*
X53580000Y-107216000D03*
X51830000Y-103096000D03*
X53580000Y-103096000D03*
X51830000Y-99596000D03*
X53580000Y-99596000D03*
X51830000Y-95476000D03*
X53580000Y-95476000D03*
X51830000Y-91976000D03*
X53580000Y-91976000D03*
X51830000Y-87856000D03*
X53580000Y-87856000D03*
X51830000Y-84356000D03*
X53580000Y-84356000D03*
X51830000Y-80236000D03*
X53580000Y-80236000D03*
X51830000Y-76736000D03*
X53580000Y-76736000D03*
X51830000Y-72616000D03*
X53580000Y-72616000D03*
X51830000Y-69116000D03*
X53580000Y-69116000D03*
X51830000Y-64996000D03*
X53580000Y-64996000D03*
X51830000Y-61496000D03*
X53580000Y-61496000D03*
X51830000Y-57376000D03*
X53580000Y-57376000D03*
X51830000Y-53876000D03*
X53580000Y-53876000D03*
X51830000Y-49756000D03*
X53580000Y-49756000D03*
X51830000Y-46256000D03*
X53580000Y-46256000D03*
X51830000Y-42136000D03*
X53580000Y-42136000D03*
X51830000Y-38636000D03*
X53580000Y-38636000D03*
X51830000Y-34516000D03*
X53580000Y-34516000D03*
X51830000Y-31016000D03*
X53580000Y-31016000D03*
X45480000Y-148816000D03*
X47230000Y-148816000D03*
X45480000Y-145316000D03*
X47230000Y-145316000D03*
X45480000Y-141196000D03*
X47230000Y-141196000D03*
X45480000Y-137696000D03*
X47230000Y-137696000D03*
X45480000Y-133576000D03*
X47230000Y-133576000D03*
X45480000Y-130076000D03*
X47230000Y-130076000D03*
X45480000Y-125956000D03*
X47230000Y-125956000D03*
X45480000Y-122456000D03*
X47230000Y-122456000D03*
X45480000Y-118336000D03*
X47230000Y-118336000D03*
X45480000Y-114836000D03*
X47230000Y-114836000D03*
X45480000Y-110716000D03*
X47230000Y-110716000D03*
X45480000Y-107216000D03*
X47230000Y-107216000D03*
X45480000Y-103096000D03*
X47230000Y-103096000D03*
X45480000Y-99596000D03*
X47230000Y-99596000D03*
X45480000Y-95476000D03*
X47230000Y-95476000D03*
X45480000Y-91976000D03*
X47230000Y-91976000D03*
X45480000Y-87856000D03*
X47230000Y-87856000D03*
X45480000Y-84356000D03*
X47230000Y-84356000D03*
X45480000Y-80236000D03*
X47230000Y-80236000D03*
X45480000Y-76736000D03*
X47230000Y-76736000D03*
X45480000Y-72616000D03*
X47230000Y-72616000D03*
X45480000Y-69116000D03*
X47230000Y-69116000D03*
X45480000Y-64996000D03*
X47230000Y-64996000D03*
X45480000Y-61496000D03*
X47230000Y-61496000D03*
X45480000Y-57376000D03*
X47230000Y-57376000D03*
X45480000Y-53876000D03*
X47230000Y-53876000D03*
X45480000Y-49756000D03*
X47230000Y-49756000D03*
X45480000Y-46256000D03*
X47230000Y-46256000D03*
X45480000Y-42136000D03*
X47230000Y-42136000D03*
X45480000Y-38636000D03*
X47230000Y-38636000D03*
X45480000Y-34516000D03*
X47230000Y-34516000D03*
X45480000Y-31016000D03*
X47230000Y-31016000D03*
X39130000Y-148816000D03*
X40880000Y-148816000D03*
X39130000Y-145316000D03*
X40880000Y-145316000D03*
X39130000Y-141196000D03*
X40880000Y-141196000D03*
X39130000Y-137696000D03*
X40880000Y-137696000D03*
X39130000Y-133576000D03*
X40880000Y-133576000D03*
X39130000Y-130076000D03*
X40880000Y-130076000D03*
X39130000Y-125956000D03*
X40880000Y-125956000D03*
X39130000Y-122456000D03*
X40880000Y-122456000D03*
X39130000Y-118336000D03*
X40880000Y-118336000D03*
X39130000Y-114836000D03*
X40880000Y-114836000D03*
X39130000Y-110716000D03*
X40880000Y-110716000D03*
X39130000Y-107216000D03*
X40880000Y-107216000D03*
X39130000Y-103096000D03*
X40880000Y-103096000D03*
X39130000Y-99596000D03*
X40880000Y-99596000D03*
X39130000Y-95476000D03*
X40880000Y-95476000D03*
X39130000Y-91976000D03*
X40880000Y-91976000D03*
X39130000Y-87856000D03*
X40880000Y-87856000D03*
X39130000Y-84356000D03*
X40880000Y-84356000D03*
X39130000Y-80236000D03*
X40880000Y-80236000D03*
X39130000Y-76736000D03*
X40880000Y-76736000D03*
X39130000Y-72616000D03*
X40880000Y-72616000D03*
X39130000Y-69116000D03*
X40880000Y-69116000D03*
X39130000Y-64996000D03*
X40880000Y-64996000D03*
X39130000Y-61496000D03*
X40880000Y-61496000D03*
X39130000Y-57376000D03*
X40880000Y-57376000D03*
X39130000Y-53876000D03*
X40880000Y-53876000D03*
X39130000Y-49756000D03*
X40880000Y-49756000D03*
X39130000Y-46256000D03*
X40880000Y-46256000D03*
X39130000Y-42136000D03*
X40880000Y-42136000D03*
X39130000Y-38636000D03*
X40880000Y-38636000D03*
X39130000Y-34516000D03*
X40880000Y-34516000D03*
X39130000Y-31016000D03*
X40880000Y-31016000D03*
M02*
