M48
; DRILL file {KiCad (5.1.5-0-10_14)} date Sunday, February 16, 2020 at 06:48:03 PM
; FORMAT={-:-/ absolute / inch / decimal}
; #@! TF.CreationDate,2020-02-16T18:48:03-08:00
; #@! TF.GenerationSoftware,Kicad,Pcbnew,(5.1.5-0-10_14)
; #@! TF.FileFunction,Plated,1,2,PTH
FMAT,2
INCH
T1C0.0157
T2C0.0315
T3C0.0394
T4C0.0433
%
G90
G05
T1
X1.4914Y-1.4185
X1.4938Y-2.3204
X1.4938Y-3.5204
X1.4938Y-4.7204
X1.4938Y-5.7974
X1.675Y-1.32
X1.675Y-5.825
X1.7414Y-1.4185
X1.7438Y-2.3204
X1.7438Y-3.5204
X1.7438Y-4.7204
X1.7438Y-5.7974
X1.925Y-1.32
X1.925Y-5.825
X1.9938Y-2.3204
X1.9938Y-4.7204
X1.9938Y-5.7974
X1.9946Y-1.4196
X1.9971Y-3.5171
X2.175Y-1.32
X2.175Y-5.825
X2.2438Y-1.4204
X2.2438Y-2.3204
X2.2438Y-3.5204
X2.2438Y-4.7204
X2.2438Y-5.7974
X2.425Y-1.32
X2.425Y-5.825
X2.4938Y-1.4204
X2.4938Y-2.3204
X2.4938Y-3.5204
X2.4938Y-4.7204
X2.4938Y-5.7974
X2.675Y-1.32
X2.675Y-5.825
X2.7438Y-2.3204
X2.7438Y-4.7204
X2.7438Y-5.7974
X2.7446Y-1.4196
X2.7471Y-3.5171
X2.925Y-1.32
X2.925Y-5.825
X2.9938Y-2.3204
X2.9938Y-4.7204
X2.9938Y-5.7974
X2.9946Y-1.4196
X2.9971Y-3.5171
X3.175Y-1.33
X3.175Y-5.825
X3.2438Y-2.3204
X3.2438Y-3.5204
X3.2438Y-4.7204
X3.2438Y-5.7974
X3.2446Y-1.4196
X3.425Y-1.33
X3.425Y-5.825
X3.4938Y-2.3204
X3.4938Y-3.5204
X3.4938Y-4.7204
X3.4938Y-5.7974
X3.675Y-1.32
X3.675Y-5.825
X3.7438Y-2.3204
X3.7438Y-3.5262
X3.7438Y-4.7204
X3.7438Y-5.7974
X3.7446Y-1.4196
X3.925Y-1.32
X3.925Y-5.825
X3.9938Y-1.4204
X3.9938Y-2.3204
X3.9938Y-3.5204
X3.9938Y-4.7204
X3.9938Y-5.7974
X4.175Y-1.32
X4.175Y-5.825
X4.2438Y-2.3204
X4.2438Y-3.5262
X4.2438Y-4.7204
X4.2438Y-5.7974
X4.2446Y-1.4196
X4.425Y-1.32
X4.425Y-5.825
X4.4938Y-2.3204
X4.4938Y-3.5262
X4.4938Y-4.7204
X4.4938Y-5.7974
X4.4946Y-1.4196
X4.675Y-1.32
X4.675Y-5.825
X4.7438Y-2.3204
X4.7438Y-3.5204
X4.7438Y-4.7204
X4.7438Y-5.7974
X4.7446Y-1.4196
X4.925Y-1.32
X4.925Y-5.825
X4.9938Y-2.3204
X4.9938Y-3.5204
X4.9938Y-4.7204
X4.9938Y-5.7974
X4.9946Y-1.4196
X5.175Y-1.32
X5.175Y-5.825
X5.2438Y-1.4204
X5.2438Y-2.3204
X5.2438Y-3.5204
X5.2438Y-4.7204
X5.2438Y-5.7974
X5.425Y-1.32
X5.425Y-5.825
X5.4938Y-2.3204
X5.4938Y-3.5204
X5.4938Y-4.7204
X5.4938Y-5.7974
X5.4946Y-1.4196
X5.675Y-1.32
X5.675Y-5.825
X5.7438Y-1.4204
X5.7438Y-2.3204
X5.7438Y-3.5262
X5.7438Y-4.7204
X5.7438Y-5.7974
X5.925Y-1.32
X5.925Y-5.825
X5.9938Y-2.3204
X5.9938Y-3.5262
X5.9938Y-4.7204
X5.9938Y-5.7974
X5.9946Y-1.4196
X6.175Y-1.32
X6.175Y-5.825
X6.2438Y-1.4204
X6.2438Y-2.3204
X6.2438Y-3.5204
X6.2438Y-4.7204
X6.2438Y-5.7974
X6.425Y-1.32
X6.425Y-5.825
X6.4938Y-2.3204
X6.4938Y-3.5262
X6.4938Y-4.7204
X6.4938Y-5.7974
X6.4946Y-1.4196
X6.675Y-1.32
X6.675Y-5.825
X6.7438Y-2.3204
X6.7438Y-3.5204
X6.7438Y-4.7204
X6.7438Y-5.7974
X6.7446Y-1.4196
X6.925Y-1.32
X6.925Y-5.825
X6.9938Y-1.4204
X6.9938Y-2.3204
X6.9938Y-3.5204
X6.9938Y-4.7204
X6.9938Y-5.7974
X7.175Y-1.32
X7.175Y-5.825
X7.2438Y-2.3204
X7.2438Y-3.5262
X7.2438Y-4.7204
X7.2438Y-5.7974
X7.2446Y-1.4196
X7.425Y-1.33
X7.425Y-5.825
X7.4938Y-2.3204
X7.4938Y-3.5204
X7.4938Y-4.7204
X7.4938Y-5.7974
X7.495Y-1.42
X7.675Y-1.32
X7.675Y-5.825
X7.7438Y-2.3204
X7.7438Y-3.5262
X7.7438Y-4.7204
X7.7438Y-5.7974
X7.7446Y-1.4196
X7.925Y-1.32
X7.925Y-5.825
X7.9938Y-1.4204
X7.9938Y-2.3204
X7.9938Y-4.7204
X7.9938Y-5.7974
X7.9971Y-3.5171
X8.175Y-1.32
X8.175Y-5.825
X8.2438Y-1.4204
X8.2438Y-2.3204
X8.2438Y-4.7204
X8.2438Y-5.7974
X8.2471Y-3.5171
X8.425Y-1.33
X8.425Y-5.825
X8.4938Y-2.3204
X8.4938Y-3.5204
X8.4938Y-4.7204
X8.4938Y-5.7974
X8.4946Y-1.4196
X8.675Y-1.32
X8.675Y-5.875
X8.7438Y-2.3204
X8.7438Y-3.5204
X8.7438Y-4.7204
X8.7438Y-5.7974
X8.7446Y-1.4196
X8.925Y-1.32
X8.925Y-5.875
X8.9938Y-1.4204
X8.9938Y-2.3204
X8.9938Y-4.7204
X8.9938Y-5.7974
X8.9971Y-3.5171
X9.175Y-1.32
X9.175Y-5.875
X9.2438Y-2.3204
X9.2438Y-4.7204
X9.2438Y-5.7974
X9.2446Y-1.4196
X9.2471Y-3.5171
X9.475Y-5.825
T2
X1.025Y-2.8766
X1.025Y-2.975
T3
X9.525Y-5.275
X9.525Y-5.375
X9.525Y-5.475
X9.525Y-5.575
X1.075Y-1.525
X1.075Y-1.625
X1.075Y-1.725
X1.075Y-1.825
T4
X1.025Y-2.375
X1.025Y-2.475
X1.025Y-2.575
X1.025Y-2.675
T0
M30
